<?xml version="1.0" standalone="no"?>
<!DOCTYPE svg PUBLIC "-//W3C//DTD SVG 20010904//EN"
 "http://www.w3.org/TR/2001/REC-SVG-20010904/DTD/svg10.dtd">
<svg version="1.0" xmlns="http://www.w3.org/2000/svg"
 width="512.000000pt" height="512.000000pt" viewBox="0 0 512.000000 512.000000"
 preserveAspectRatio="xMidYMid meet">
<metadata>
Created by potrace 1.11, written by Peter Selinger 2001-2013
</metadata>
<g transform="translate(0.000000,512.000000) scale(0.100000,-0.100000)"
fill="#000000" stroke="none">
<path d="M2379 5116 c-2 -2 -35 -6 -74 -10 -38 -3 -81 -8 -95 -11 -13 -2 -42
-7 -65 -11 -244 -36 -583 -153 -800 -277 -92 -53 -140 -81 -145 -87 -7 -7 -41
-28 -60 -37 -8 -4 -21 -13 -29 -21 -8 -7 -30 -24 -50 -37 -20 -12 -46 -32 -58
-44 -12 -12 -25 -21 -28 -21 -4 0 -21 -13 -38 -30 -79 -74 -143 -130 -149
-130 -5 0 -8 -4 -8 -8 0 -4 -32 -41 -70 -82 -117 -124 -166 -188 -267 -341
-56 -85 -185 -329 -225 -424 -17 -43 -60 -161 -63 -175 -2 -8 -8 -27 -14 -42
-14 -37 -54 -202 -66 -273 -3 -16 -8 -42 -11 -57 -5 -27 -9 -51 -21 -148 -15
-122 -8 -507 12 -623 2 -12 9 -49 14 -82 11 -67 18 -99 25 -123 3 -9 8 -33 11
-52 9 -51 99 -316 135 -396 41 -91 128 -262 140 -274 10 -10 31 -45 45 -77 9
-18 20 -33 25 -33 6 0 10 -4 10 -10 0 -13 80 -126 118 -165 6 -8 12 -16 12
-18 0 -22 302 -325 385 -386 33 -25 66 -52 73 -60 6 -8 12 -11 12 -5 0 5 4 4
8 -2 4 -7 39 -33 77 -58 39 -25 79 -53 90 -61 10 -8 25 -15 32 -15 7 0 13 -4
13 -10 0 -5 4 -10 9 -10 4 0 39 -17 77 -38 173 -95 449 -199 629 -237 129 -28
167 -34 340 -55 69 -9 442 -6 500 4 17 3 53 7 80 10 71 9 197 34 285 57 41 12
82 22 90 24 32 7 238 83 295 109 114 53 170 81 173 89 2 4 8 7 14 7 23 0 312
187 364 235 6 5 28 24 50 40 49 39 308 295 298 295 -4 0 -1 6 8 13 15 12 86
98 123 151 11 16 25 34 31 40 6 7 19 28 29 46 10 19 21 37 24 40 16 12 110
184 162 295 80 169 159 405 183 540 5 30 7 40 26 140 24 124 35 496 18 640
-13 117 -40 271 -60 345 -11 41 -21 82 -23 90 -30 136 -179 488 -246 582 -11
15 -18 28 -15 28 3 0 -15 29 -39 65 -25 36 -45 70 -45 75 0 6 -3 10 -7 10 -5
0 -19 17 -33 38 -14 20 -29 42 -35 49 -5 7 -14 18 -20 25 -69 92 -270 301
-366 382 -52 44 -209 159 -254 186 -22 13 -41 28 -43 32 -2 4 -7 8 -11 8 -5 0
-46 21 -92 48 -69 39 -191 98 -294 143 -33 14 -225 79 -248 83 -12 3 -67 16
-122 29 -55 14 -121 28 -146 31 -25 4 -57 9 -70 11 -78 13 -135 17 -325 20
-117 2 -214 2 -215 1z"/>
</g>
</svg>
